# xmcd
#
# Track frame offsets:
#	150
#	21219
#	36436
#	55365
#	76977
#	92742
#	111449
#	127719
#	146234
#	167677
#	185683
#	201867
#	214709
#
# Disc length: 3130 seconds
#
# Revision: 1
# Processed by: cddbd v1.5.2PL0 Copyright (c) Steve Scherf et al.
# Submitted via: audiograbber 1.83.01
#
DISCID=bb0c380d
DTITLE=KM Myrland - Sjelespor
DYEAR=2010
DGENRE=Country
TTITLE0=Får æ se dæ
TTITLE1=Når jent'n fær
TTITLE2=Alt som du gav
TTITLE3=Når sommar'n kjæm
TTITLE4=Vil alltid forbli
TTITLE5=Hei min venn
TTITLE6=Du må ikkje gå
TTITLE7=Takk du (Thank you)
TTITLE8=Nu har du en sang
TTITLE9=Reint tilfeldig
TTITLE10=Skyggen av dett smil
TTITLE11=Det æ hadde tenkt (I thought of you again)
TTITLE12=Sjelsvenn
EXTD=
EXTT0=
EXTT1=
EXTT2=
EXTT3=
EXTT4=
EXTT5=
EXTT6=
EXTT7=
EXTT8=
EXTT9=
EXTT10=
EXTT11=
EXTT12=
PLAYORDER=
